<svg width="127" height="21" viewBox="0 0 127 21" fill="none" xmlns="http://www.w3.org/2000/svg">
<path d="M115.5 0L118.88 6.84815L126.437 7.9463L120.969 13.2768L122.26 20.8037L115.5 17.25L108.741 20.8037L110.032 13.2768L104.563 7.9463L112.12 6.84815L115.5 0Z" fill="#FFC01D"/>
<path d="M89.5001 0L92.8799 6.84815L100.437 7.9463L94.9687 13.2768L96.2597 20.8037L89.5001 17.25L82.7406 20.8037L84.0316 13.2768L78.563 7.9463L86.1204 6.84815L89.5001 0Z" fill="#FFC01D"/>
<path d="M63.5001 0L66.8799 6.84815L74.4373 7.9463L68.9687 13.2768L70.2597 20.8037L63.5001 17.25L56.7406 20.8037L58.0316 13.2768L52.563 7.9463L60.1204 6.84815L63.5001 0Z" fill="#FFC01D"/>
<path d="M37.5001 0L40.8799 6.84815L48.4373 7.9463L42.9687 13.2768L44.2597 20.8037L37.5001 17.25L30.7406 20.8037L32.0316 13.2768L26.563 7.9463L34.1204 6.84815L37.5001 0Z" fill="#FFC01D"/>
<path d="M11.5001 0L14.8799 6.84815L22.4373 7.9463L16.9687 13.2768L18.2597 20.8037L11.5001 17.25L4.74061 20.8037L6.03156 13.2768L0.562988 7.9463L8.12037 6.84815L11.5001 0Z" fill="#FFC01D"/>
</svg>
